<?xml version="1.0" encoding="UTF-8" standalone="no"?>
<!-- Created with Inkscape (http://www.inkscape.org/) -->

<svg
   xmlns:dc="http://purl.org/dc/elements/1.1/"
   xmlns:cc="http://creativecommons.org/ns#"
   xmlns:rdf="http://www.w3.org/1999/02/22-rdf-syntax-ns#"
   xmlns:svg="http://www.w3.org/2000/svg"
   xmlns="http://www.w3.org/2000/svg"
   xmlns:sodipodi="http://sodipodi.sourceforge.net/DTD/sodipodi-0.dtd"
   xmlns:inkscape="http://www.inkscape.org/namespaces/inkscape"
   width="744.09003"
   height="1052.3622"
   id="svg2"
   version="1.1"
   inkscape:version="0.48.4 r9939"
   sodipodi:docname="Auto.svg">
  <defs
     id="defs4" />
  <sodipodi:namedview
     id="base"
     pagecolor="#ffffff"
     bordercolor="#666666"
     borderopacity="1.0"
     inkscape:pageopacity="0.0"
     inkscape:pageshadow="2"
     inkscape:zoom="0.7"
     inkscape:cx="396.99497"
     inkscape:cy="514.00453"
     inkscape:document-units="px"
     inkscape:current-layer="layer1"
     showgrid="false"
     inkscape:window-width="1280"
     inkscape:window-height="715"
     inkscape:window-x="0"
     inkscape:window-y="27"
     inkscape:window-maximized="1" />
  <metadata
     id="metadata7">
    <rdf:RDF>
      <cc:Work
         rdf:about="">
        <dc:format>image/svg+xml</dc:format>
        <dc:type
           rdf:resource="http://purl.org/dc/dcmitype/StillImage" />
      </cc:Work>
    </rdf:RDF>
  </metadata>
  <g
     inkscape:label="Ebene 1"
     inkscape:groupmode="layer"
     id="layer1">
    <path
       style="fill:#ffffff;stroke:#000000;stroke-width:4.54762554;stroke-linecap:round;stroke-linejoin:round"
       inkscape:connector-curvature="0"
       id="Stossstange1"
       d="m 757.03882,719.06691 22.08607,7.91501 1.00393,37.59761 h -19.07438 z">
      <title
         id="title3446">Stoßstange</title>
    </path>
    <path
       style="fill:#ffffff;stroke:#000000;stroke-width:4.54762554;stroke-linecap:round;stroke-linejoin:round"
       inkscape:connector-curvature="0"
       id="Stossstange2"
       d="m 65.27858,718.07371 -29.113847,13.85124 -2.007827,33.63831 29.113847,0.98936 z">
      <title
         id="title3444">Stoßstange</title>
    </path>
    <path
       style="fill:#ffffff;stroke:#000000;stroke-width:4.54762554;stroke-linecap:round;stroke-linejoin:round"
       inkscape:connector-curvature="0"
       id="Karosserie"
       d="m 87.518803,617.93981 c 17.887457,-24.35853 105.413147,-31.15978 157.291727,-45.27919 14.18107,-41.0242 32.71902,-80.06874 50.57532,-121.09293 34.41624,-15.16004 170.42515,-27.50523 272.49427,-3.51643 30.90268,38.98585 52.65503,74.70087 70.88926,123.05226 30.16059,3.85187 59.1645,13.2217 77.9118,21.88725 34.34064,39.15064 40.39199,109.69582 46.31508,173.33591 L 52.431473,767.1311 C 57.046491,718.18154 49.466721,664.90922 87.534836,617.9393 z" />
    <path
       style="fill:#ffffff;stroke:#000000;stroke-width:2.27381277;stroke-linecap:round;stroke-linejoin:round"
       inkscape:connector-curvature="0"
       id="Tuer1"
       d="m 444.82824,584.50919 v 159.26163 l 129.50405,0.0295 c 1.49388,-38.99488 15.98411,-66.34435 55.21577,-85.9648 l -7.44326,-80.90167 c -17.67171,-47.54329 -43.75436,-82.45923 -65.84114,-117.08623 -41.58073,-6.86987 -73.33317,-10.25356 -111.93635,-9.39918 z">
      <title
         id="title3430">Tür</title>
    </path>
    <path
       style="fill:#ffffff;stroke:#000000;stroke-width:2.27381277;stroke-linecap:round;stroke-linejoin:round"
       inkscape:connector-curvature="0"
       id="Tuer2"
       d="m 259.09604,583.51598 c -7.93937,47.36269 -13.05897,98.31223 -6.51059,160.27967 h 176.17189 l 4.0156,-293.85548 c -38.19775,0.23758 -83.2531,2.12672 -125.4889,11.87251 z">
      <title
         id="title3428">Tür</title>
    </path>
    <path
       style="fill:#ffffff;stroke:#000000;stroke-width:2.27381277;stroke-linecap:round;stroke-linejoin:round"
       inkscape:connector-curvature="0"
       id="Fenster2"
       d="m 317.47949,472.34389 -39.3132,104.24442 138.10011,-0.82939 2.94962,-111.51972 c -37.29989,-0.8192 -79.13029,3.62027 -101.73469,8.10461 z">
      <title
         id="title3426">Fenster</title>
    </path>
    <path
       style="fill:#ffffff;stroke:#000000;stroke-width:2.27381277;stroke-linecap:round;stroke-linejoin:round"
       inkscape:connector-curvature="0"
       id="Fenster1"
       d="m 455.50172,464.62392 0.87122,110.48586 146.57016,-1.33691 C 591.16746,535.36715 562.11591,497.8779 543.87939,470.54198 507.22082,465.61813 486.05023,465.06937 455.50028,464.624 z">
      <title
         id="title3424">Fenster</title>
    </path>
    <path
       style="fill:#ffffff;stroke:#000000;stroke-width:4.54762554;stroke-linecap:round;stroke-linejoin:round"
       inkscape:connector-curvature="0"
       id="Rad2"
       d="m 228.86217,744.12296 c 2.77762,46.08506 -50.49516,87.01445 -95.6719,68.59036 -45.229411,-15.54491 -62.957457,-76.23133 -33.11295,-112.65062 21.49673,-29.65643 68.20716,-38.70143 98.01043,-15.49074 19.12408,13.65171 31.51195,36.34481 30.77442,59.54987 z">
      <title
         id="title3434">Rad</title>
    </path>
    <path
       style="fill:#ffffff;stroke:#000000;stroke-width:2.27381277;stroke-linecap:round;stroke-linejoin:round"
       inkscape:connector-curvature="0"
       id="Radkappe2"
       d="m 196.81884,744.77757 c 1.51783,25.20277 -27.59298,47.58843 -52.27941,37.51184 -24.71619,-8.50145 -34.40248,-41.69011 -18.09451,-61.60627 11.747,-16.21915 37.2724,-21.16467 53.55747,-8.47165 10.45039,7.4658 17.22025,19.87644 16.81645,32.56608 z">
      <title
         id="title3436">Radkappe</title>
    </path>
    <path
       style="fill:#ffffff;stroke:#000000;stroke-width:4.54762554;stroke-linecap:round;stroke-linejoin:round"
       inkscape:connector-curvature="0"
       id="Rad1"
       d="m 740.52471,743.40063 c 1.36571,41.2883 -38.54132,78.68048 -80.54121,73.41195 -37.57934,-2.97084 -68.57593,-37.55699 -66.78252,-74.70088 -0.37828,-37.86847 33.06028,-72.30587 71.71842,-72.34877 40.9211,-1.97734 76.43903,33.68346 75.60531,73.6377 z">
      <title
         id="title3432">Rad</title>
    </path>
    <path
       style="fill:#ffffff;stroke:#000000;stroke-width:2.27381277;stroke-linecap:round;stroke-linejoin:round"
       inkscape:connector-curvature="0"
       id="Radkappe1"
       d="m 707.95458,743.82951 c 1.5603,25.90705 -28.36488,48.91797 -53.74071,38.55922 -25.40562,-8.73914 -35.36448,-42.85487 -18.60048,-63.32859 12.07546,-16.67266 38.31456,-21.75654 55.05542,-8.70844 10.74266,7.6746 17.70172,20.43218 17.28669,33.47804 z">
      <title
         id="title3438">Radkappe</title>
    </path>
    <path
       style="fill:#ffffff;stroke:#000000;stroke-width:2.27381277;stroke-linecap:round;stroke-linejoin:round"
       inkscape:connector-curvature="0"
       id="Tuergriff2"
       d="m 382.55104,596.65346 v 17.49002 l 30.52476,-1.39918 0.70987,-14.69165 z">
      <title
         id="title3440">Türgriff</title>
    </path>
    <path
       style="fill:#ffffff;stroke:#000000;stroke-width:2.27381277;stroke-linecap:round;stroke-linejoin:round"
       inkscape:connector-curvature="0"
       id="Tuergriff1"
       d="m 564.98499,593.85442 -0.70988,16.79026 31.94484,-1.39919 0.70988,-14.69164 z">
      <title
         id="title3442">Türgriff</title>
    </path>
  </g>
</svg>
